<?xml version="1.0" standalone="no"?><!DOCTYPE svg PUBLIC "-//W3C//DTD SVG 1.1//EN" "http://www.w3.org/Graphics/SVG/1.1/DTD/svg11.dtd"><svg t="1641206951513" class="icon" viewBox="0 0 1651 1024" version="1.1" xmlns="http://www.w3.org/2000/svg" p-id="1674" width="206.375" height="128" xmlns:xlink="http://www.w3.org/1999/xlink"><defs><style type="text/css"></style></defs><path d="M919.191769 531.513021a81.949041 81.949041 0 0 0-81.91601 81.91601v321.256094a81.949041 81.949041 0 0 0 81.91601 81.982071h53.278437V531.513021h-53.278437zM1550.605658 531.513021h-53.212375v485.154175h53.179345a81.91601 81.91601 0 0 0 81.982071-81.982071V613.429031a81.91601 81.91601 0 0 0-81.949041-81.91601M1314.172272 531.513021h-158.547116v-49.413851c0-7.828264 6.407946-14.23621 14.23621-14.23621h130.074696c7.894325 0 14.23621 6.407946 14.23621 14.203179v49.446882z m71.577416 0v-49.413851a85.912718 85.912718 0 0 0-85.813626-85.813626h-130.074696a85.912718 85.912718 0 0 0-85.813627 85.813626v49.413851h-40.033147v485.154175h381.801274V531.513021h-40.033147z" fill="#F83CB6" p-id="1675"></path><path d="M729.001291 35.458732L247.08412 915.824624c-24.839048 45.384112 7.993417 100.809541 59.752444 100.809541h970.341381c51.858119 0 84.723615-55.722705 59.521229-101.106817L848.341027 35.062364c-26.028152-46.903522-93.542798-46.705338-119.306705 0.330307" fill="#31EC7C" p-id="1676"></path><path d="M243.615902 529.233906L4.209757 966.559701c-12.353463 22.559933 3.963678 50.074464 29.661523 50.074464h482.016263c25.763906 0 42.114078-27.679684 29.595462-50.206586L302.905917 529.068753a33.856415 33.856415 0 0 0-59.256984 0.132123" fill="#31EC7C" p-id="1677"></path><path d="M919.191769 531.513021a81.949041 81.949041 0 0 0-81.91601 81.91601v321.256094a81.949041 81.949041 0 0 0 81.91601 81.982071h53.278437V531.513021h-53.278437zM1336.699174 915.494318l-250.603535-451.79322c-1.321226 5.945517-1.981839 12.056187-1.981839 18.365041v49.446882h-40.066177v485.154175h233.097291c51.92418 0 84.756646-55.755736 59.55426-101.172878" fill="#2BBB66" p-id="1678"></path></svg>